<?xml version="1.0" encoding="utf-8" standalone="no"?>
<!DOCTYPE svg PUBLIC "-//W3C//DTD SVG 1.1//EN"
  "http://www.w3.org/Graphics/SVG/1.1/DTD/svg11.dtd">
<svg xmlns:xlink="http://www.w3.org/1999/xlink" width="432pt" height="288pt" viewBox="0 0 432 288" xmlns="http://www.w3.org/2000/svg" version="1.1">
 <metadata>
  <rdf:RDF xmlns:dc="http://purl.org/dc/elements/1.1/" xmlns:cc="http://creativecommons.org/ns#" xmlns:rdf="http://www.w3.org/1999/02/22-rdf-syntax-ns#">
   <cc:Work>
    <dc:type rdf:resource="http://purl.org/dc/dcmitype/StillImage"/>
    <dc:date>2026-05-29T12:05:12.177345</dc:date>
    <dc:format>image/svg+xml</dc:format>
    <dc:creator>
     <cc:Agent>
      <dc:title>Matplotlib v3.10.8, https://matplotlib.org/</dc:title>
     </cc:Agent>
    </dc:creator>
   </cc:Work>
  </rdf:RDF>
 </metadata>
 <defs>
  <style type="text/css">*{stroke-linejoin: round; stroke-linecap: butt}</style>
 </defs>
 <g id="figure_1">
  <g id="patch_1">
   <path d="M 0 288 
L 432 288 
L 432 0 
L 0 0 
z
" style="fill: #ffffff"/>
  </g>
  <g id="axes_1">
   <g id="patch_2">
    <path d="M 65.51 230.288 
L 421.2 230.288 
L 421.2 28.42125 
L 65.51 28.42125 
z
" style="fill: #ffffff"/>
   </g>
   <g id="matplotlib.axis_1">
    <g id="text_1">
     <!--  -->
     <g style="fill: #303030" transform="translate(421.2 243.593156) scale(0.13 -0.13)"/>
     <!-- Os vídeos foram o tipo de conteúdo dominante,  -->
     <g style="fill: #303030" transform="translate(143.721094 257.542969) scale(0.13 -0.13)">
      <defs>
       <path id="ArialMT-4f" d="M 309 2231 
Q 309 3372 921 4017 
Q 1534 4663 2503 4663 
Q 3138 4663 3647 4359 
Q 4156 4056 4423 3514 
Q 4691 2972 4691 2284 
Q 4691 1588 4409 1038 
Q 4128 488 3612 205 
Q 3097 -78 2500 -78 
Q 1853 -78 1343 234 
Q 834 547 571 1087 
Q 309 1628 309 2231 
z
M 934 2222 
Q 934 1394 1379 917 
Q 1825 441 2497 441 
Q 3181 441 3623 922 
Q 4066 1403 4066 2288 
Q 4066 2847 3877 3264 
Q 3688 3681 3323 3911 
Q 2959 4141 2506 4141 
Q 1863 4141 1398 3698 
Q 934 3256 934 2222 
z
" transform="scale(0.015625)"/>
       <path id="ArialMT-73" d="M 197 991 
L 753 1078 
Q 800 744 1014 566 
Q 1228 388 1613 388 
Q 2000 388 2187 545 
Q 2375 703 2375 916 
Q 2375 1106 2209 1216 
Q 2094 1291 1634 1406 
Q 1016 1563 777 1677 
Q 538 1791 414 1992 
Q 291 2194 291 2438 
Q 291 2659 392 2848 
Q 494 3038 669 3163 
Q 800 3259 1026 3326 
Q 1253 3394 1513 3394 
Q 1903 3394 2198 3281 
Q 2494 3169 2634 2976 
Q 2775 2784 2828 2463 
L 2278 2388 
Q 2241 2644 2061 2787 
Q 1881 2931 1553 2931 
Q 1166 2931 1000 2803 
Q 834 2675 834 2503 
Q 834 2394 903 2306 
Q 972 2216 1119 2156 
Q 1203 2125 1616 2013 
Q 2213 1853 2448 1751 
Q 2684 1650 2818 1456 
Q 2953 1263 2953 975 
Q 2953 694 2789 445 
Q 2625 197 2315 61 
Q 2006 -75 1616 -75 
Q 969 -75 630 194 
Q 291 463 197 991 
z
" transform="scale(0.015625)"/>
       <path id="ArialMT-20" transform="scale(0.015625)"/>
       <path id="ArialMT-76" d="M 1344 0 
L 81 3319 
L 675 3319 
L 1388 1331 
Q 1503 1009 1600 663 
Q 1675 925 1809 1294 
L 2547 3319 
L 3125 3319 
L 1869 0 
L 1344 0 
z
" transform="scale(0.015625)"/>
       <path id="ArialMT-ed" d="M 619 0 
L 619 3319 
L 1181 3319 
L 1181 0 
L 619 0 
z
M 590 3731 
L 1005 4606 
L 1743 4606 
L 1055 3731 
L 590 3731 
z
" transform="scale(0.015625)"/>
       <path id="ArialMT-64" d="M 2575 0 
L 2575 419 
Q 2259 -75 1647 -75 
Q 1250 -75 917 144 
Q 584 363 401 755 
Q 219 1147 219 1656 
Q 219 2153 384 2558 
Q 550 2963 881 3178 
Q 1213 3394 1622 3394 
Q 1922 3394 2156 3267 
Q 2391 3141 2538 2938 
L 2538 4581 
L 3097 4581 
L 3097 0 
L 2575 0 
z
M 797 1656 
Q 797 1019 1065 703 
Q 1334 388 1700 388 
Q 2069 388 2326 689 
Q 2584 991 2584 1609 
Q 2584 2291 2321 2609 
Q 2059 2928 1675 2928 
Q 1300 2928 1048 2622 
Q 797 2316 797 1656 
z
" transform="scale(0.015625)"/>
       <path id="ArialMT-65" d="M 2694 1069 
L 3275 997 
Q 3138 488 2766 206 
Q 2394 -75 1816 -75 
Q 1088 -75 661 373 
Q 234 822 234 1631 
Q 234 2469 665 2931 
Q 1097 3394 1784 3394 
Q 2450 3394 2872 2941 
Q 3294 2488 3294 1666 
Q 3294 1616 3291 1516 
L 816 1516 
Q 847 969 1125 678 
Q 1403 388 1819 388 
Q 2128 388 2347 550 
Q 2566 713 2694 1069 
z
M 847 1978 
L 2700 1978 
Q 2663 2397 2488 2606 
Q 2219 2931 1791 2931 
Q 1403 2931 1139 2672 
Q 875 2413 847 1978 
z
" transform="scale(0.015625)"/>
       <path id="ArialMT-6f" d="M 213 1659 
Q 213 2581 725 3025 
Q 1153 3394 1769 3394 
Q 2453 3394 2887 2945 
Q 3322 2497 3322 1706 
Q 3322 1066 3130 698 
Q 2938 331 2570 128 
Q 2203 -75 1769 -75 
Q 1072 -75 642 372 
Q 213 819 213 1659 
z
M 791 1659 
Q 791 1022 1069 705 
Q 1347 388 1769 388 
Q 2188 388 2466 706 
Q 2744 1025 2744 1678 
Q 2744 2294 2464 2611 
Q 2184 2928 1769 2928 
Q 1347 2928 1069 2612 
Q 791 2297 791 1659 
z
" transform="scale(0.015625)"/>
       <path id="ArialMT-66" d="M 556 0 
L 556 2881 
L 59 2881 
L 59 3319 
L 556 3319 
L 556 3672 
Q 556 4006 616 4169 
Q 697 4388 901 4523 
Q 1106 4659 1475 4659 
Q 1713 4659 2000 4603 
L 1916 4113 
Q 1741 4144 1584 4144 
Q 1328 4144 1222 4034 
Q 1116 3925 1116 3625 
L 1116 3319 
L 1763 3319 
L 1763 2881 
L 1116 2881 
L 1116 0 
L 556 0 
z
" transform="scale(0.015625)"/>
       <path id="ArialMT-72" d="M 416 0 
L 416 3319 
L 922 3319 
L 922 2816 
Q 1116 3169 1280 3281 
Q 1444 3394 1641 3394 
Q 1925 3394 2219 3213 
L 2025 2691 
Q 1819 2813 1613 2813 
Q 1428 2813 1281 2702 
Q 1134 2591 1072 2394 
Q 978 2094 978 1738 
L 978 0 
L 416 0 
z
" transform="scale(0.015625)"/>
       <path id="ArialMT-61" d="M 2588 409 
Q 2275 144 1986 34 
Q 1697 -75 1366 -75 
Q 819 -75 525 192 
Q 231 459 231 875 
Q 231 1119 342 1320 
Q 453 1522 633 1644 
Q 813 1766 1038 1828 
Q 1203 1872 1538 1913 
Q 2219 1994 2541 2106 
Q 2544 2222 2544 2253 
Q 2544 2597 2384 2738 
Q 2169 2928 1744 2928 
Q 1347 2928 1158 2789 
Q 969 2650 878 2297 
L 328 2372 
Q 403 2725 575 2942 
Q 747 3159 1072 3276 
Q 1397 3394 1825 3394 
Q 2250 3394 2515 3294 
Q 2781 3194 2906 3042 
Q 3031 2891 3081 2659 
Q 3109 2516 3109 2141 
L 3109 1391 
Q 3109 606 3145 398 
Q 3181 191 3288 0 
L 2700 0 
Q 2613 175 2588 409 
z
M 2541 1666 
Q 2234 1541 1622 1453 
Q 1275 1403 1131 1340 
Q 988 1278 909 1158 
Q 831 1038 831 891 
Q 831 666 1001 516 
Q 1172 366 1500 366 
Q 1825 366 2078 508 
Q 2331 650 2450 897 
Q 2541 1088 2541 1459 
L 2541 1666 
z
" transform="scale(0.015625)"/>
       <path id="ArialMT-6d" d="M 422 0 
L 422 3319 
L 925 3319 
L 925 2853 
Q 1081 3097 1340 3245 
Q 1600 3394 1931 3394 
Q 2300 3394 2536 3241 
Q 2772 3088 2869 2813 
Q 3263 3394 3894 3394 
Q 4388 3394 4653 3120 
Q 4919 2847 4919 2278 
L 4919 0 
L 4359 0 
L 4359 2091 
Q 4359 2428 4304 2576 
Q 4250 2725 4106 2815 
Q 3963 2906 3769 2906 
Q 3419 2906 3187 2673 
Q 2956 2441 2956 1928 
L 2956 0 
L 2394 0 
L 2394 2156 
Q 2394 2531 2256 2718 
Q 2119 2906 1806 2906 
Q 1569 2906 1367 2781 
Q 1166 2656 1075 2415 
Q 984 2175 984 1722 
L 984 0 
L 422 0 
z
" transform="scale(0.015625)"/>
       <path id="ArialMT-74" d="M 1650 503 
L 1731 6 
Q 1494 -44 1306 -44 
Q 1000 -44 831 53 
Q 663 150 594 308 
Q 525 466 525 972 
L 525 2881 
L 113 2881 
L 113 3319 
L 525 3319 
L 525 4141 
L 1084 4478 
L 1084 3319 
L 1650 3319 
L 1650 2881 
L 1084 2881 
L 1084 941 
Q 1084 700 1114 631 
Q 1144 563 1211 522 
Q 1278 481 1403 481 
Q 1497 481 1650 503 
z
" transform="scale(0.015625)"/>
       <path id="ArialMT-69" d="M 425 3934 
L 425 4581 
L 988 4581 
L 988 3934 
L 425 3934 
z
M 425 0 
L 425 3319 
L 988 3319 
L 988 0 
L 425 0 
z
" transform="scale(0.015625)"/>
       <path id="ArialMT-70" d="M 422 -1272 
L 422 3319 
L 934 3319 
L 934 2888 
Q 1116 3141 1344 3267 
Q 1572 3394 1897 3394 
Q 2322 3394 2647 3175 
Q 2972 2956 3137 2557 
Q 3303 2159 3303 1684 
Q 3303 1175 3120 767 
Q 2938 359 2589 142 
Q 2241 -75 1856 -75 
Q 1575 -75 1351 44 
Q 1128 163 984 344 
L 984 -1272 
L 422 -1272 
z
M 931 1641 
Q 931 1000 1190 694 
Q 1450 388 1819 388 
Q 2194 388 2461 705 
Q 2728 1022 2728 1688 
Q 2728 2322 2467 2637 
Q 2206 2953 1844 2953 
Q 1484 2953 1207 2617 
Q 931 2281 931 1641 
z
" transform="scale(0.015625)"/>
       <path id="ArialMT-63" d="M 2588 1216 
L 3141 1144 
Q 3050 572 2676 248 
Q 2303 -75 1759 -75 
Q 1078 -75 664 370 
Q 250 816 250 1647 
Q 250 2184 428 2587 
Q 606 2991 970 3192 
Q 1334 3394 1763 3394 
Q 2303 3394 2647 3120 
Q 2991 2847 3088 2344 
L 2541 2259 
Q 2463 2594 2264 2762 
Q 2066 2931 1784 2931 
Q 1359 2931 1093 2626 
Q 828 2322 828 1663 
Q 828 994 1084 691 
Q 1341 388 1753 388 
Q 2084 388 2306 591 
Q 2528 794 2588 1216 
z
" transform="scale(0.015625)"/>
       <path id="ArialMT-6e" d="M 422 0 
L 422 3319 
L 928 3319 
L 928 2847 
Q 1294 3394 1984 3394 
Q 2284 3394 2536 3286 
Q 2788 3178 2913 3003 
Q 3038 2828 3088 2588 
Q 3119 2431 3119 2041 
L 3119 0 
L 2556 0 
L 2556 2019 
Q 2556 2363 2490 2533 
Q 2425 2703 2258 2804 
Q 2091 2906 1866 2906 
Q 1506 2906 1245 2678 
Q 984 2450 984 1813 
L 984 0 
L 422 0 
z
" transform="scale(0.015625)"/>
       <path id="ArialMT-fa" d="M 2597 0 
L 2597 488 
Q 2209 -75 1544 -75 
Q 1250 -75 995 37 
Q 741 150 617 320 
Q 494 491 444 738 
Q 409 903 409 1263 
L 409 3319 
L 972 3319 
L 972 1478 
Q 972 1038 1006 884 
Q 1059 663 1231 536 
Q 1403 409 1656 409 
Q 1909 409 2131 539 
Q 2353 669 2445 892 
Q 2538 1116 2538 1541 
L 2538 3319 
L 3100 3319 
L 3100 0 
L 2597 0 
z
M 1414 3731 
L 1829 4606 
L 2567 4606 
L 1879 3731 
L 1414 3731 
z
" transform="scale(0.015625)"/>
       <path id="ArialMT-2c" d="M 569 0 
L 569 641 
L 1209 641 
L 1209 0 
Q 1209 -353 1084 -570 
Q 959 -788 688 -906 
L 531 -666 
Q 709 -588 793 -436 
Q 878 -284 888 0 
L 569 0 
z
" transform="scale(0.015625)"/>
      </defs>
      <use xlink:href="#ArialMT-4f"/>
      <use xlink:href="#ArialMT-73" transform="translate(77.783203 0)"/>
      <use xlink:href="#ArialMT-20" transform="translate(127.783203 0)"/>
      <use xlink:href="#ArialMT-76" transform="translate(155.566406 0)"/>
      <use xlink:href="#ArialMT-ed" transform="translate(205.566406 0)"/>
      <use xlink:href="#ArialMT-64" transform="translate(233.349609 0)"/>
      <use xlink:href="#ArialMT-65" transform="translate(288.964844 0)"/>
      <use xlink:href="#ArialMT-6f" transform="translate(344.580078 0)"/>
      <use xlink:href="#ArialMT-73" transform="translate(400.195312 0)"/>
      <use xlink:href="#ArialMT-20" transform="translate(450.195312 0)"/>
      <use xlink:href="#ArialMT-66" transform="translate(477.978516 0)"/>
      <use xlink:href="#ArialMT-6f" transform="translate(505.761719 0)"/>
      <use xlink:href="#ArialMT-72" transform="translate(561.376953 0)"/>
      <use xlink:href="#ArialMT-61" transform="translate(594.677734 0)"/>
      <use xlink:href="#ArialMT-6d" transform="translate(650.292969 0)"/>
      <use xlink:href="#ArialMT-20" transform="translate(733.59375 0)"/>
      <use xlink:href="#ArialMT-6f" transform="translate(761.376953 0)"/>
      <use xlink:href="#ArialMT-20" transform="translate(816.992188 0)"/>
      <use xlink:href="#ArialMT-74" transform="translate(844.775391 0)"/>
      <use xlink:href="#ArialMT-69" transform="translate(872.558594 0)"/>
      <use xlink:href="#ArialMT-70" transform="translate(894.775391 0)"/>
      <use xlink:href="#ArialMT-6f" transform="translate(950.390625 0)"/>
      <use xlink:href="#ArialMT-20" transform="translate(1006.005859 0)"/>
      <use xlink:href="#ArialMT-64" transform="translate(1033.789062 0)"/>
      <use xlink:href="#ArialMT-65" transform="translate(1089.404297 0)"/>
      <use xlink:href="#ArialMT-20" transform="translate(1145.019531 0)"/>
      <use xlink:href="#ArialMT-63" transform="translate(1172.802734 0)"/>
      <use xlink:href="#ArialMT-6f" transform="translate(1222.802734 0)"/>
      <use xlink:href="#ArialMT-6e" transform="translate(1278.417969 0)"/>
      <use xlink:href="#ArialMT-74" transform="translate(1334.033203 0)"/>
      <use xlink:href="#ArialMT-65" transform="translate(1361.816406 0)"/>
      <use xlink:href="#ArialMT-fa" transform="translate(1417.431641 0)"/>
      <use xlink:href="#ArialMT-64" transform="translate(1473.046875 0)"/>
      <use xlink:href="#ArialMT-6f" transform="translate(1528.662109 0)"/>
      <use xlink:href="#ArialMT-20" transform="translate(1584.277344 0)"/>
      <use xlink:href="#ArialMT-64" transform="translate(1612.060547 0)"/>
      <use xlink:href="#ArialMT-6f" transform="translate(1667.675781 0)"/>
      <use xlink:href="#ArialMT-6d" transform="translate(1723.291016 0)"/>
      <use xlink:href="#ArialMT-69" transform="translate(1806.591797 0)"/>
      <use xlink:href="#ArialMT-6e" transform="translate(1828.808594 0)"/>
      <use xlink:href="#ArialMT-61" transform="translate(1884.423828 0)"/>
      <use xlink:href="#ArialMT-6e" transform="translate(1940.039062 0)"/>
      <use xlink:href="#ArialMT-74" transform="translate(1995.654297 0)"/>
      <use xlink:href="#ArialMT-65" transform="translate(2023.4375 0)"/>
      <use xlink:href="#ArialMT-2c" transform="translate(2079.052734 0)"/>
      <use xlink:href="#ArialMT-20" transform="translate(2106.835938 0)"/>
     </g>
     <!-- devido a preferência dos usuários por conteúdos audiovisuais -->
     <g style="fill: #303030" transform="translate(64.945156 271.483031) scale(0.13 -0.13)">
      <defs>
       <path id="ArialMT-ea" d="M 2694 1069 
L 3275 997 
Q 3138 488 2766 206 
Q 2394 -75 1816 -75 
Q 1088 -75 661 373 
Q 234 822 234 1631 
Q 234 2469 665 2931 
Q 1097 3394 1784 3394 
Q 2450 3394 2872 2941 
Q 3294 2488 3294 1666 
Q 3294 1616 3291 1516 
L 816 1516 
Q 847 969 1125 678 
Q 1403 388 1819 388 
Q 2128 388 2347 550 
Q 2566 713 2694 1069 
z
M 847 1978 
L 2700 1978 
Q 2663 2397 2488 2606 
Q 2219 2931 1791 2931 
Q 1403 2931 1139 2672 
Q 875 2413 847 1978 
z
M 1771 4263 
L 1418 3731 
L 774 3731 
L 1449 4606 
L 2049 4606 
L 2752 3731 
L 2115 3731 
L 1771 4263 
z
" transform="scale(0.015625)"/>
       <path id="ArialMT-75" d="M 2597 0 
L 2597 488 
Q 2209 -75 1544 -75 
Q 1250 -75 995 37 
Q 741 150 617 320 
Q 494 491 444 738 
Q 409 903 409 1263 
L 409 3319 
L 972 3319 
L 972 1478 
Q 972 1038 1006 884 
Q 1059 663 1231 536 
Q 1403 409 1656 409 
Q 1909 409 2131 539 
Q 2353 669 2445 892 
Q 2538 1116 2538 1541 
L 2538 3319 
L 3100 3319 
L 3100 0 
L 2597 0 
z
" transform="scale(0.015625)"/>
       <path id="ArialMT-e1" d="M 2588 409 
Q 2275 144 1986 34 
Q 1697 -75 1366 -75 
Q 819 -75 525 192 
Q 231 459 231 875 
Q 231 1119 342 1320 
Q 453 1522 633 1644 
Q 813 1766 1038 1828 
Q 1203 1872 1538 1913 
Q 2219 1994 2541 2106 
Q 2544 2222 2544 2253 
Q 2544 2597 2384 2738 
Q 2169 2928 1744 2928 
Q 1347 2928 1158 2789 
Q 969 2650 878 2297 
L 328 2372 
Q 403 2725 575 2942 
Q 747 3159 1072 3276 
Q 1397 3394 1825 3394 
Q 2250 3394 2515 3294 
Q 2781 3194 2906 3042 
Q 3031 2891 3081 2659 
Q 3109 2516 3109 2141 
L 3109 1391 
Q 3109 606 3145 398 
Q 3181 191 3288 0 
L 2700 0 
Q 2613 175 2588 409 
z
M 2541 1666 
Q 2234 1541 1622 1453 
Q 1275 1403 1131 1340 
Q 988 1278 909 1158 
Q 831 1038 831 891 
Q 831 666 1001 516 
Q 1172 366 1500 366 
Q 1825 366 2078 508 
Q 2331 650 2450 897 
Q 2541 1088 2541 1459 
L 2541 1666 
z
M 1446 3731 
L 1861 4606 
L 2599 4606 
L 1911 3731 
L 1446 3731 
z
" transform="scale(0.015625)"/>
      </defs>
      <use xlink:href="#ArialMT-64"/>
      <use xlink:href="#ArialMT-65" transform="translate(55.615234 0)"/>
      <use xlink:href="#ArialMT-76" transform="translate(111.230469 0)"/>
      <use xlink:href="#ArialMT-69" transform="translate(161.230469 0)"/>
      <use xlink:href="#ArialMT-64" transform="translate(183.447266 0)"/>
      <use xlink:href="#ArialMT-6f" transform="translate(239.0625 0)"/>
      <use xlink:href="#ArialMT-20" transform="translate(294.677734 0)"/>
      <use xlink:href="#ArialMT-61" transform="translate(322.460938 0)"/>
      <use xlink:href="#ArialMT-20" transform="translate(378.076172 0)"/>
      <use xlink:href="#ArialMT-70" transform="translate(405.859375 0)"/>
      <use xlink:href="#ArialMT-72" transform="translate(461.474609 0)"/>
      <use xlink:href="#ArialMT-65" transform="translate(494.775391 0)"/>
      <use xlink:href="#ArialMT-66" transform="translate(550.390625 0)"/>
      <use xlink:href="#ArialMT-65" transform="translate(578.173828 0)"/>
      <use xlink:href="#ArialMT-72" transform="translate(633.789062 0)"/>
      <use xlink:href="#ArialMT-ea" transform="translate(667.089844 0)"/>
      <use xlink:href="#ArialMT-6e" transform="translate(722.705078 0)"/>
      <use xlink:href="#ArialMT-63" transform="translate(778.320312 0)"/>
      <use xlink:href="#ArialMT-69" transform="translate(828.320312 0)"/>
      <use xlink:href="#ArialMT-61" transform="translate(850.537109 0)"/>
      <use xlink:href="#ArialMT-20" transform="translate(906.152344 0)"/>
      <use xlink:href="#ArialMT-64" transform="translate(933.935547 0)"/>
      <use xlink:href="#ArialMT-6f" transform="translate(989.550781 0)"/>
      <use xlink:href="#ArialMT-73" transform="translate(1045.166016 0)"/>
      <use xlink:href="#ArialMT-20" transform="translate(1095.166016 0)"/>
      <use xlink:href="#ArialMT-75" transform="translate(1122.949219 0)"/>
      <use xlink:href="#ArialMT-73" transform="translate(1178.564453 0)"/>
      <use xlink:href="#ArialMT-75" transform="translate(1228.564453 0)"/>
      <use xlink:href="#ArialMT-e1" transform="translate(1284.179688 0)"/>
      <use xlink:href="#ArialMT-72" transform="translate(1339.794922 0)"/>
      <use xlink:href="#ArialMT-69" transform="translate(1373.095703 0)"/>
      <use xlink:href="#ArialMT-6f" transform="translate(1395.3125 0)"/>
      <use xlink:href="#ArialMT-73" transform="translate(1450.927734 0)"/>
      <use xlink:href="#ArialMT-20" transform="translate(1500.927734 0)"/>
      <use xlink:href="#ArialMT-70" transform="translate(1528.710938 0)"/>
      <use xlink:href="#ArialMT-6f" transform="translate(1584.326172 0)"/>
      <use xlink:href="#ArialMT-72" transform="translate(1639.941406 0)"/>
      <use xlink:href="#ArialMT-20" transform="translate(1673.242188 0)"/>
      <use xlink:href="#ArialMT-63" transform="translate(1701.025391 0)"/>
      <use xlink:href="#ArialMT-6f" transform="translate(1751.025391 0)"/>
      <use xlink:href="#ArialMT-6e" transform="translate(1806.640625 0)"/>
      <use xlink:href="#ArialMT-74" transform="translate(1862.255859 0)"/>
      <use xlink:href="#ArialMT-65" transform="translate(1890.039062 0)"/>
      <use xlink:href="#ArialMT-fa" transform="translate(1945.654297 0)"/>
      <use xlink:href="#ArialMT-64" transform="translate(2001.269531 0)"/>
      <use xlink:href="#ArialMT-6f" transform="translate(2056.884766 0)"/>
      <use xlink:href="#ArialMT-73" transform="translate(2112.5 0)"/>
      <use xlink:href="#ArialMT-20" transform="translate(2162.5 0)"/>
      <use xlink:href="#ArialMT-61" transform="translate(2190.283203 0)"/>
      <use xlink:href="#ArialMT-75" transform="translate(2245.898438 0)"/>
      <use xlink:href="#ArialMT-64" transform="translate(2301.513672 0)"/>
      <use xlink:href="#ArialMT-69" transform="translate(2357.128906 0)"/>
      <use xlink:href="#ArialMT-6f" transform="translate(2379.345703 0)"/>
      <use xlink:href="#ArialMT-76" transform="translate(2434.960938 0)"/>
      <use xlink:href="#ArialMT-69" transform="translate(2484.960938 0)"/>
      <use xlink:href="#ArialMT-73" transform="translate(2507.177734 0)"/>
      <use xlink:href="#ArialMT-75" transform="translate(2557.177734 0)"/>
      <use xlink:href="#ArialMT-61" transform="translate(2612.792969 0)"/>
      <use xlink:href="#ArialMT-69" transform="translate(2668.408203 0)"/>
      <use xlink:href="#ArialMT-73" transform="translate(2690.625 0)"/>
     </g>
    </g>
   </g>
   <g id="matplotlib.axis_2">
    <g id="ytick_1">
     <g id="line2d_1"/>
     <g id="text_2">
      <!-- Feed -->
      <g style="fill: #262626" transform="translate(34.66125 215.995889) scale(0.12 -0.12)">
       <defs>
        <path id="ArialMT-46" d="M 525 0 
L 525 4581 
L 3616 4581 
L 3616 4041 
L 1131 4041 
L 1131 2622 
L 3281 2622 
L 3281 2081 
L 1131 2081 
L 1131 0 
L 525 0 
z
" transform="scale(0.015625)"/>
       </defs>
       <use xlink:href="#ArialMT-46"/>
       <use xlink:href="#ArialMT-65" transform="translate(61.083984 0)"/>
       <use xlink:href="#ArialMT-65" transform="translate(116.699219 0)"/>
       <use xlink:href="#ArialMT-64" transform="translate(172.314453 0)"/>
      </g>
     </g>
    </g>
    <g id="ytick_2">
     <g id="line2d_2"/>
     <g id="text_3">
      <!-- Reel -->
      <g style="fill: #262626" transform="translate(37.33125 192.468296) scale(0.12 -0.12)">
       <defs>
        <path id="ArialMT-52" d="M 503 0 
L 503 4581 
L 2534 4581 
Q 3147 4581 3465 4457 
Q 3784 4334 3975 4021 
Q 4166 3709 4166 3331 
Q 4166 2844 3850 2509 
Q 3534 2175 2875 2084 
Q 3116 1969 3241 1856 
Q 3506 1613 3744 1247 
L 4541 0 
L 3778 0 
L 3172 953 
Q 2906 1366 2734 1584 
Q 2563 1803 2427 1890 
Q 2291 1978 2150 2013 
Q 2047 2034 1813 2034 
L 1109 2034 
L 1109 0 
L 503 0 
z
M 1109 2559 
L 2413 2559 
Q 2828 2559 3062 2645 
Q 3297 2731 3419 2920 
Q 3541 3109 3541 3331 
Q 3541 3656 3305 3865 
Q 3069 4075 2559 4075 
L 1109 4075 
L 1109 2559 
z
" transform="scale(0.015625)"/>
        <path id="ArialMT-6c" d="M 409 0 
L 409 4581 
L 972 4581 
L 972 0 
L 409 0 
z
" transform="scale(0.015625)"/>
       </defs>
       <use xlink:href="#ArialMT-52"/>
       <use xlink:href="#ArialMT-65" transform="translate(72.216797 0)"/>
       <use xlink:href="#ArialMT-65" transform="translate(127.832031 0)"/>
       <use xlink:href="#ArialMT-6c" transform="translate(183.447266 0)"/>
      </g>
     </g>
    </g>
    <g id="ytick_3">
     <g id="line2d_3"/>
     <g id="text_4">
      <!-- Enquete -->
      <g style="fill: #262626" transform="translate(17.30625 168.940702) scale(0.12 -0.12)">
       <defs>
        <path id="ArialMT-45" d="M 506 0 
L 506 4581 
L 3819 4581 
L 3819 4041 
L 1113 4041 
L 1113 2638 
L 3647 2638 
L 3647 2100 
L 1113 2100 
L 1113 541 
L 3925 541 
L 3925 0 
L 506 0 
z
" transform="scale(0.015625)"/>
        <path id="ArialMT-71" d="M 2538 -1272 
L 2538 353 
Q 2406 169 2170 47 
Q 1934 -75 1669 -75 
Q 1078 -75 651 397 
Q 225 869 225 1691 
Q 225 2191 398 2587 
Q 572 2984 901 3189 
Q 1231 3394 1625 3394 
Q 2241 3394 2594 2875 
L 2594 3319 
L 3100 3319 
L 3100 -1272 
L 2538 -1272 
z
M 803 1669 
Q 803 1028 1072 708 
Q 1341 388 1716 388 
Q 2075 388 2334 692 
Q 2594 997 2594 1619 
Q 2594 2281 2320 2615 
Q 2047 2950 1678 2950 
Q 1313 2950 1058 2639 
Q 803 2328 803 1669 
z
" transform="scale(0.015625)"/>
       </defs>
       <use xlink:href="#ArialMT-45"/>
       <use xlink:href="#ArialMT-6e" transform="translate(66.699219 0)"/>
       <use xlink:href="#ArialMT-71" transform="translate(122.314453 0)"/>
       <use xlink:href="#ArialMT-75" transform="translate(177.929688 0)"/>
       <use xlink:href="#ArialMT-65" transform="translate(233.544922 0)"/>
       <use xlink:href="#ArialMT-74" transform="translate(289.160156 0)"/>
       <use xlink:href="#ArialMT-65" transform="translate(316.943359 0)"/>
      </g>
     </g>
    </g>
    <g id="ytick_4">
     <g id="line2d_4"/>
     <g id="text_5">
      <!-- Carrossel -->
      <g style="fill: #262626" transform="translate(10.666875 145.413109) scale(0.12 -0.12)">
       <defs>
        <path id="ArialMT-43" d="M 3763 1606 
L 4369 1453 
Q 4178 706 3683 314 
Q 3188 -78 2472 -78 
Q 1731 -78 1267 223 
Q 803 525 561 1097 
Q 319 1669 319 2325 
Q 319 3041 592 3573 
Q 866 4106 1370 4382 
Q 1875 4659 2481 4659 
Q 3169 4659 3637 4309 
Q 4106 3959 4291 3325 
L 3694 3184 
Q 3534 3684 3231 3912 
Q 2928 4141 2469 4141 
Q 1941 4141 1586 3887 
Q 1231 3634 1087 3207 
Q 944 2781 944 2328 
Q 944 1744 1114 1308 
Q 1284 872 1643 656 
Q 2003 441 2422 441 
Q 2931 441 3284 734 
Q 3638 1028 3763 1606 
z
" transform="scale(0.015625)"/>
       </defs>
       <use xlink:href="#ArialMT-43"/>
       <use xlink:href="#ArialMT-61" transform="translate(72.216797 0)"/>
       <use xlink:href="#ArialMT-72" transform="translate(127.832031 0)"/>
       <use xlink:href="#ArialMT-72" transform="translate(161.132812 0)"/>
       <use xlink:href="#ArialMT-6f" transform="translate(194.433594 0)"/>
       <use xlink:href="#ArialMT-73" transform="translate(250.048828 0)"/>
       <use xlink:href="#ArialMT-73" transform="translate(300.048828 0)"/>
       <use xlink:href="#ArialMT-65" transform="translate(350.048828 0)"/>
       <use xlink:href="#ArialMT-6c" transform="translate(405.664062 0)"/>
      </g>
     </g>
    </g>
    <g id="ytick_5">
     <g id="line2d_5"/>
     <g id="text_6">
      <!-- Imagem -->
      <g style="fill: #262626" transform="translate(18.665625 121.885516) scale(0.12 -0.12)">
       <defs>
        <path id="ArialMT-49" d="M 597 0 
L 597 4581 
L 1203 4581 
L 1203 0 
L 597 0 
z
" transform="scale(0.015625)"/>
        <path id="ArialMT-67" d="M 319 -275 
L 866 -356 
Q 900 -609 1056 -725 
Q 1266 -881 1628 -881 
Q 2019 -881 2231 -725 
Q 2444 -569 2519 -288 
Q 2563 -116 2559 434 
Q 2191 0 1641 0 
Q 956 0 581 494 
Q 206 988 206 1678 
Q 206 2153 378 2554 
Q 550 2956 876 3175 
Q 1203 3394 1644 3394 
Q 2231 3394 2613 2919 
L 2613 3319 
L 3131 3319 
L 3131 450 
Q 3131 -325 2973 -648 
Q 2816 -972 2473 -1159 
Q 2131 -1347 1631 -1347 
Q 1038 -1347 672 -1080 
Q 306 -813 319 -275 
z
M 784 1719 
Q 784 1066 1043 766 
Q 1303 466 1694 466 
Q 2081 466 2343 764 
Q 2606 1063 2606 1700 
Q 2606 2309 2336 2618 
Q 2066 2928 1684 2928 
Q 1309 2928 1046 2623 
Q 784 2319 784 1719 
z
" transform="scale(0.015625)"/>
       </defs>
       <use xlink:href="#ArialMT-49"/>
       <use xlink:href="#ArialMT-6d" transform="translate(27.783203 0)"/>
       <use xlink:href="#ArialMT-61" transform="translate(111.083984 0)"/>
       <use xlink:href="#ArialMT-67" transform="translate(166.699219 0)"/>
       <use xlink:href="#ArialMT-65" transform="translate(222.314453 0)"/>
       <use xlink:href="#ArialMT-6d" transform="translate(277.929688 0)"/>
      </g>
     </g>
    </g>
    <g id="ytick_6">
     <g id="line2d_6"/>
     <g id="text_7">
      <!-- Artigo -->
      <g style="fill: #262626" transform="translate(30.66375 98.357923) scale(0.12 -0.12)">
       <defs>
        <path id="ArialMT-41" d="M -9 0 
L 1750 4581 
L 2403 4581 
L 4278 0 
L 3588 0 
L 3053 1388 
L 1138 1388 
L 634 0 
L -9 0 
z
M 1313 1881 
L 2866 1881 
L 2388 3150 
Q 2169 3728 2063 4100 
Q 1975 3659 1816 3225 
L 1313 1881 
z
" transform="scale(0.015625)"/>
       </defs>
       <use xlink:href="#ArialMT-41"/>
       <use xlink:href="#ArialMT-72" transform="translate(66.699219 0)"/>
       <use xlink:href="#ArialMT-74" transform="translate(100 0)"/>
       <use xlink:href="#ArialMT-69" transform="translate(127.783203 0)"/>
       <use xlink:href="#ArialMT-67" transform="translate(150 0)"/>
       <use xlink:href="#ArialMT-6f" transform="translate(205.615234 0)"/>
      </g>
     </g>
    </g>
    <g id="ytick_7">
     <g id="line2d_7"/>
     <g id="text_8">
      <!-- Story -->
      <g style="fill: #262626" transform="translate(34.003125 74.903454) scale(0.12 -0.12)">
       <defs>
        <path id="ArialMT-53" d="M 288 1472 
L 859 1522 
Q 900 1178 1048 958 
Q 1197 738 1509 602 
Q 1822 466 2213 466 
Q 2559 466 2825 569 
Q 3091 672 3220 851 
Q 3350 1031 3350 1244 
Q 3350 1459 3225 1620 
Q 3100 1781 2813 1891 
Q 2628 1963 1997 2114 
Q 1366 2266 1113 2400 
Q 784 2572 623 2826 
Q 463 3081 463 3397 
Q 463 3744 659 4045 
Q 856 4347 1234 4503 
Q 1613 4659 2075 4659 
Q 2584 4659 2973 4495 
Q 3363 4331 3572 4012 
Q 3781 3694 3797 3291 
L 3216 3247 
Q 3169 3681 2898 3903 
Q 2628 4125 2100 4125 
Q 1550 4125 1298 3923 
Q 1047 3722 1047 3438 
Q 1047 3191 1225 3031 
Q 1400 2872 2139 2705 
Q 2878 2538 3153 2413 
Q 3553 2228 3743 1945 
Q 3934 1663 3934 1294 
Q 3934 928 3725 604 
Q 3516 281 3123 101 
Q 2731 -78 2241 -78 
Q 1619 -78 1198 103 
Q 778 284 539 648 
Q 300 1013 288 1472 
z
" transform="scale(0.015625)"/>
        <path id="ArialMT-79" d="M 397 -1278 
L 334 -750 
Q 519 -800 656 -800 
Q 844 -800 956 -737 
Q 1069 -675 1141 -563 
Q 1194 -478 1313 -144 
Q 1328 -97 1363 -6 
L 103 3319 
L 709 3319 
L 1400 1397 
Q 1534 1031 1641 628 
Q 1738 1016 1872 1384 
L 2581 3319 
L 3144 3319 
L 1881 -56 
Q 1678 -603 1566 -809 
Q 1416 -1088 1222 -1217 
Q 1028 -1347 759 -1347 
Q 597 -1347 397 -1278 
z
" transform="scale(0.015625)"/>
       </defs>
       <use xlink:href="#ArialMT-53"/>
       <use xlink:href="#ArialMT-74" transform="translate(66.699219 0)"/>
       <use xlink:href="#ArialMT-6f" transform="translate(94.482422 0)"/>
       <use xlink:href="#ArialMT-72" transform="translate(150.097656 0)"/>
       <use xlink:href="#ArialMT-79" transform="translate(183.398438 0)"/>
      </g>
     </g>
    </g>
    <g id="ytick_8">
     <g id="line2d_8"/>
     <g id="text_9">
      <!-- Vídeo -->
      <g style="fill: #262626" transform="translate(30.6525 51.302736) scale(0.12 -0.12)">
       <defs>
        <path id="ArialMT-56" d="M 1803 0 
L 28 4581 
L 684 4581 
L 1875 1253 
Q 2019 853 2116 503 
Q 2222 878 2363 1253 
L 3600 4581 
L 4219 4581 
L 2425 0 
L 1803 0 
z
" transform="scale(0.015625)"/>
       </defs>
       <use xlink:href="#ArialMT-56"/>
       <use xlink:href="#ArialMT-ed" transform="translate(66.699219 0)"/>
       <use xlink:href="#ArialMT-64" transform="translate(94.482422 0)"/>
       <use xlink:href="#ArialMT-65" transform="translate(150.097656 0)"/>
       <use xlink:href="#ArialMT-6f" transform="translate(205.712891 0)"/>
      </g>
     </g>
    </g>
   </g>
   <g id="patch_3">
    <path d="M 65.51 221.112239 
L 121.274027 221.112239 
L 121.274027 202.290164 
L 65.51 202.290164 
z
" clip-path="url(#p270e76a7f8)" style="fill: #009499"/>
   </g>
   <g id="patch_4">
    <path d="M 65.51 197.584645 
L 122.738537 197.584645 
L 122.738537 178.762571 
L 65.51 178.762571 
z
" clip-path="url(#p270e76a7f8)" style="fill: #009499"/>
   </g>
   <g id="patch_5">
    <path d="M 65.51 174.057052 
L 124.653665 174.057052 
L 124.653665 155.234978 
L 65.51 155.234978 
z
" clip-path="url(#p270e76a7f8)" style="fill: #009499"/>
   </g>
   <g id="patch_6">
    <path d="M 65.51 150.529459 
L 171.855942 150.529459 
L 171.855942 131.707384 
L 65.51 131.707384 
z
" clip-path="url(#p270e76a7f8)" style="fill: #009499"/>
   </g>
   <g id="patch_7">
    <path d="M 65.51 127.001866 
L 177.150708 127.001866 
L 177.150708 108.179791 
L 65.51 108.179791 
z
" clip-path="url(#p270e76a7f8)" style="fill: #009499"/>
   </g>
   <g id="patch_8">
    <path d="M 65.51 103.474272 
L 261.866967 103.474272 
L 261.866967 84.652198 
L 65.51 84.652198 
z
" clip-path="url(#p270e76a7f8)" style="fill: #009499"/>
   </g>
   <g id="patch_9">
    <path d="M 65.51 79.946679 
L 266.823769 79.946679 
L 266.823769 61.124605 
L 65.51 61.124605 
z
" clip-path="url(#p270e76a7f8)" style="fill: #009499"/>
   </g>
   <g id="patch_10">
    <path d="M 65.51 56.419086 
L 404.262381 56.419086 
L 404.262381 37.597011 
L 65.51 37.597011 
z
" clip-path="url(#p270e76a7f8)" style="fill: #009499"/>
   </g>
   <g id="patch_11">
    <path d="M 65.51 230.288 
L 65.51 28.42125 
" style="fill: none; stroke: #cccccc; stroke-linejoin: miter; stroke-linecap: square"/>
   </g>
   <g id="patch_12">
    <path d="M 421.2 230.288 
L 421.2 28.42125 
" style="fill: none; stroke: #cccccc; stroke-linejoin: miter; stroke-linecap: square"/>
   </g>
   <g id="patch_13">
    <path d="M 65.51 230.288 
L 421.2 230.288 
" style="fill: none; stroke: #cccccc; stroke-linejoin: miter; stroke-linecap: square"/>
   </g>
   <g id="patch_14">
    <path d="M 65.51 28.42125 
L 421.2 28.42125 
" style="fill: none; stroke: #cccccc; stroke-linejoin: miter; stroke-linecap: square"/>
   </g>
   <g id="text_10">
    <!-- Posts por tipo de conteúdo -->
    <g style="fill: #262626" transform="translate(139.80875 22.42125) scale(0.16 -0.16)">
     <defs>
      <path id="Arial-BoldMT-50" d="M 466 0 
L 466 4581 
L 1950 4581 
Q 2794 4581 3050 4513 
Q 3444 4409 3709 4064 
Q 3975 3719 3975 3172 
Q 3975 2750 3822 2462 
Q 3669 2175 3433 2011 
Q 3197 1847 2953 1794 
Q 2622 1728 1994 1728 
L 1391 1728 
L 1391 0 
L 466 0 
z
M 1391 3806 
L 1391 2506 
L 1897 2506 
Q 2444 2506 2628 2578 
Q 2813 2650 2917 2803 
Q 3022 2956 3022 3159 
Q 3022 3409 2875 3571 
Q 2728 3734 2503 3775 
Q 2338 3806 1838 3806 
L 1391 3806 
z
" transform="scale(0.015625)"/>
      <path id="Arial-BoldMT-6f" d="M 256 1706 
Q 256 2144 472 2553 
Q 688 2963 1083 3178 
Q 1478 3394 1966 3394 
Q 2719 3394 3200 2905 
Q 3681 2416 3681 1669 
Q 3681 916 3195 420 
Q 2709 -75 1972 -75 
Q 1516 -75 1102 131 
Q 688 338 472 736 
Q 256 1134 256 1706 
z
M 1156 1659 
Q 1156 1166 1390 903 
Q 1625 641 1969 641 
Q 2313 641 2545 903 
Q 2778 1166 2778 1666 
Q 2778 2153 2545 2415 
Q 2313 2678 1969 2678 
Q 1625 2678 1390 2415 
Q 1156 2153 1156 1659 
z
" transform="scale(0.015625)"/>
      <path id="Arial-BoldMT-73" d="M 150 947 
L 1031 1081 
Q 1088 825 1259 692 
Q 1431 559 1741 559 
Q 2081 559 2253 684 
Q 2369 772 2369 919 
Q 2369 1019 2306 1084 
Q 2241 1147 2013 1200 
Q 950 1434 666 1628 
Q 272 1897 272 2375 
Q 272 2806 612 3100 
Q 953 3394 1669 3394 
Q 2350 3394 2681 3172 
Q 3013 2950 3138 2516 
L 2309 2363 
Q 2256 2556 2107 2659 
Q 1959 2763 1684 2763 
Q 1338 2763 1188 2666 
Q 1088 2597 1088 2488 
Q 1088 2394 1175 2328 
Q 1294 2241 1995 2081 
Q 2697 1922 2975 1691 
Q 3250 1456 3250 1038 
Q 3250 581 2869 253 
Q 2488 -75 1741 -75 
Q 1063 -75 667 200 
Q 272 475 150 947 
z
" transform="scale(0.015625)"/>
      <path id="Arial-BoldMT-74" d="M 1981 3319 
L 1981 2619 
L 1381 2619 
L 1381 1281 
Q 1381 875 1398 808 
Q 1416 741 1477 697 
Q 1538 653 1625 653 
Q 1747 653 1978 738 
L 2053 56 
Q 1747 -75 1359 -75 
Q 1122 -75 931 4 
Q 741 84 652 211 
Q 563 338 528 553 
Q 500 706 500 1172 
L 500 2619 
L 97 2619 
L 97 3319 
L 500 3319 
L 500 3978 
L 1381 4491 
L 1381 3319 
L 1981 3319 
z
" transform="scale(0.015625)"/>
      <path id="Arial-BoldMT-20" transform="scale(0.015625)"/>
      <path id="Arial-BoldMT-70" d="M 434 3319 
L 1253 3319 
L 1253 2831 
Q 1413 3081 1684 3237 
Q 1956 3394 2288 3394 
Q 2866 3394 3269 2941 
Q 3672 2488 3672 1678 
Q 3672 847 3265 386 
Q 2859 -75 2281 -75 
Q 2006 -75 1782 34 
Q 1559 144 1313 409 
L 1313 -1263 
L 434 -1263 
L 434 3319 
z
M 1303 1716 
Q 1303 1156 1525 889 
Q 1747 622 2066 622 
Q 2372 622 2575 867 
Q 2778 1113 2778 1672 
Q 2778 2194 2568 2447 
Q 2359 2700 2050 2700 
Q 1728 2700 1515 2451 
Q 1303 2203 1303 1716 
z
" transform="scale(0.015625)"/>
      <path id="Arial-BoldMT-72" d="M 1300 0 
L 422 0 
L 422 3319 
L 1238 3319 
L 1238 2847 
Q 1447 3181 1614 3287 
Q 1781 3394 1994 3394 
Q 2294 3394 2572 3228 
L 2300 2463 
Q 2078 2606 1888 2606 
Q 1703 2606 1575 2504 
Q 1447 2403 1373 2137 
Q 1300 1872 1300 1025 
L 1300 0 
z
" transform="scale(0.015625)"/>
      <path id="Arial-BoldMT-69" d="M 459 3769 
L 459 4581 
L 1338 4581 
L 1338 3769 
L 459 3769 
z
M 459 0 
L 459 3319 
L 1338 3319 
L 1338 0 
L 459 0 
z
" transform="scale(0.015625)"/>
      <path id="Arial-BoldMT-64" d="M 3503 0 
L 2688 0 
L 2688 488 
Q 2484 203 2207 64 
Q 1931 -75 1650 -75 
Q 1078 -75 670 386 
Q 263 847 263 1672 
Q 263 2516 659 2955 
Q 1056 3394 1663 3394 
Q 2219 3394 2625 2931 
L 2625 4581 
L 3503 4581 
L 3503 0 
z
M 1159 1731 
Q 1159 1200 1306 963 
Q 1519 619 1900 619 
Q 2203 619 2415 876 
Q 2628 1134 2628 1647 
Q 2628 2219 2422 2470 
Q 2216 2722 1894 2722 
Q 1581 2722 1370 2473 
Q 1159 2225 1159 1731 
z
" transform="scale(0.015625)"/>
      <path id="Arial-BoldMT-65" d="M 2381 1056 
L 3256 909 
Q 3088 428 2723 176 
Q 2359 -75 1813 -75 
Q 947 -75 531 491 
Q 203 944 203 1634 
Q 203 2459 634 2926 
Q 1066 3394 1725 3394 
Q 2466 3394 2894 2905 
Q 3322 2416 3303 1406 
L 1103 1406 
Q 1113 1016 1316 798 
Q 1519 581 1822 581 
Q 2028 581 2168 693 
Q 2309 806 2381 1056 
z
M 2431 1944 
Q 2422 2325 2234 2523 
Q 2047 2722 1778 2722 
Q 1491 2722 1303 2513 
Q 1116 2303 1119 1944 
L 2431 1944 
z
" transform="scale(0.015625)"/>
      <path id="Arial-BoldMT-63" d="M 3353 2338 
L 2488 2181 
Q 2444 2441 2289 2572 
Q 2134 2703 1888 2703 
Q 1559 2703 1364 2476 
Q 1169 2250 1169 1719 
Q 1169 1128 1367 884 
Q 1566 641 1900 641 
Q 2150 641 2309 783 
Q 2469 925 2534 1272 
L 3397 1125 
Q 3263 531 2881 228 
Q 2500 -75 1859 -75 
Q 1131 -75 698 384 
Q 266 844 266 1656 
Q 266 2478 700 2936 
Q 1134 3394 1875 3394 
Q 2481 3394 2839 3133 
Q 3197 2872 3353 2338 
z
" transform="scale(0.015625)"/>
      <path id="Arial-BoldMT-6e" d="M 3478 0 
L 2600 0 
L 2600 1694 
Q 2600 2231 2544 2389 
Q 2488 2547 2361 2634 
Q 2234 2722 2056 2722 
Q 1828 2722 1647 2597 
Q 1466 2472 1398 2265 
Q 1331 2059 1331 1503 
L 1331 0 
L 453 0 
L 453 3319 
L 1269 3319 
L 1269 2831 
Q 1703 3394 2363 3394 
Q 2653 3394 2893 3289 
Q 3134 3184 3257 3021 
Q 3381 2859 3429 2653 
Q 3478 2447 3478 2063 
L 3478 0 
z
" transform="scale(0.015625)"/>
      <path id="Arial-BoldMT-fa" d="M 2644 0 
L 2644 497 
Q 2463 231 2167 78 
Q 1872 -75 1544 -75 
Q 1209 -75 943 72 
Q 678 219 559 484 
Q 441 750 441 1219 
L 441 3319 
L 1319 3319 
L 1319 1794 
Q 1319 1094 1367 936 
Q 1416 778 1544 686 
Q 1672 594 1869 594 
Q 2094 594 2272 717 
Q 2450 841 2515 1023 
Q 2581 1206 2581 1919 
L 2581 3319 
L 3459 3319 
L 3459 0 
L 2644 0 
z
M 1504 3725 
L 1936 4659 
L 2920 4659 
L 2061 3725 
L 1504 3725 
z
" transform="scale(0.015625)"/>
     </defs>
     <use xlink:href="#Arial-BoldMT-50"/>
     <use xlink:href="#Arial-BoldMT-6f" transform="translate(66.699219 0)"/>
     <use xlink:href="#Arial-BoldMT-73" transform="translate(127.783203 0)"/>
     <use xlink:href="#Arial-BoldMT-74" transform="translate(183.398438 0)"/>
     <use xlink:href="#Arial-BoldMT-73" transform="translate(216.699219 0)"/>
     <use xlink:href="#Arial-BoldMT-20" transform="translate(272.314453 0)"/>
     <use xlink:href="#Arial-BoldMT-70" transform="translate(300.097656 0)"/>
     <use xlink:href="#Arial-BoldMT-6f" transform="translate(361.181641 0)"/>
     <use xlink:href="#Arial-BoldMT-72" transform="translate(422.265625 0)"/>
     <use xlink:href="#Arial-BoldMT-20" transform="translate(461.181641 0)"/>
     <use xlink:href="#Arial-BoldMT-74" transform="translate(488.964844 0)"/>
     <use xlink:href="#Arial-BoldMT-69" transform="translate(522.265625 0)"/>
     <use xlink:href="#Arial-BoldMT-70" transform="translate(550.048828 0)"/>
     <use xlink:href="#Arial-BoldMT-6f" transform="translate(611.132812 0)"/>
     <use xlink:href="#Arial-BoldMT-20" transform="translate(672.216797 0)"/>
     <use xlink:href="#Arial-BoldMT-64" transform="translate(700 0)"/>
     <use xlink:href="#Arial-BoldMT-65" transform="translate(761.083984 0)"/>
     <use xlink:href="#Arial-BoldMT-20" transform="translate(816.699219 0)"/>
     <use xlink:href="#Arial-BoldMT-63" transform="translate(844.482422 0)"/>
     <use xlink:href="#Arial-BoldMT-6f" transform="translate(900.097656 0)"/>
     <use xlink:href="#Arial-BoldMT-6e" transform="translate(961.181641 0)"/>
     <use xlink:href="#Arial-BoldMT-74" transform="translate(1022.265625 0)"/>
     <use xlink:href="#Arial-BoldMT-65" transform="translate(1055.566406 0)"/>
     <use xlink:href="#Arial-BoldMT-fa" transform="translate(1111.181641 0)"/>
     <use xlink:href="#Arial-BoldMT-64" transform="translate(1172.265625 0)"/>
     <use xlink:href="#Arial-BoldMT-6f" transform="translate(1233.349609 0)"/>
    </g>
   </g>
  </g>
 </g>
 <defs>
  <clipPath id="p270e76a7f8">
   <rect x="65.51" y="28.42125" width="355.69" height="201.86675"/>
  </clipPath>
 </defs>
</svg>
